<?xml version="1.0" encoding="UTF-8" standalone="no"?>
<!-- Created with Inkscape (http://www.inkscape.org/) -->

<svg
   version="1.1"
   id="svg1"
   width="128"
   height="128"
   viewBox="0 0 128 128"
   sodipodi:docname="RoofusMilton.svg"
   inkscape:version="1.3.2 (091e20e, 2023-11-25)"
   xmlns:inkscape="http://www.inkscape.org/namespaces/inkscape"
   xmlns:sodipodi="http://sodipodi.sourceforge.net/DTD/sodipodi-0.dtd"
   xmlns="http://www.w3.org/2000/svg"
   xmlns:svg="http://www.w3.org/2000/svg">
  <defs
     id="defs1" />
  <sodipodi:namedview
     id="namedview1"
     pagecolor="#ffffff"
     bordercolor="#000000"
     borderopacity="0.25"
     inkscape:showpageshadow="2"
     inkscape:pageopacity="0.0"
     inkscape:pagecheckerboard="0"
     inkscape:deskcolor="#d1d1d1"
     inkscape:zoom="1.84375"
     inkscape:cx="63.728814"
     inkscape:cy="64"
     inkscape:window-width="1312"
     inkscape:window-height="449"
     inkscape:window-x="0"
     inkscape:window-y="38"
     inkscape:window-maximized="0"
     inkscape:current-layer="g1" />
  <g
     inkscape:groupmode="layer"
     inkscape:label="Image"
     id="g1">
    <path
       style="fill:#000000"
       d="m 80.591503,119.84866 c -0.06133,-0.0592 -0.615503,-0.18788 -1.231503,-0.28591 -1.340759,-0.21337 -3.67921,-1.30802 -4.572909,-2.14063 -0.354208,-0.32999 -0.766207,-0.52447 -0.915553,-0.43217 -0.149346,0.0923 -0.271538,-0.001 -0.271538,-0.20831 0,-0.20688 -0.544512,-0.89938 -1.210026,-1.53889 -1.804528,-1.73402 -6.026518,-8.06143 -6.6139,-9.91211 -0.120561,-0.37985 -0.341588,-0.69064 -0.491172,-0.69064 -0.268158,0 -1.739987,-3.712 -1.619074,-4.08335 0.01493,-0.0459 -0.178922,-0.47785 -0.430776,-0.960003 -0.718904,-1.376292 -2.174262,-2.582951 -3.368122,-2.792561 -0.601188,-0.105552 -1.213188,-0.266151 -1.36,-0.356885 -0.345935,-0.213799 -0.336485,-0.03181 0.05131,0.988167 0.25147,0.661415 0.174701,1.118974 -0.365899,2.180832 -0.376275,0.73909 -0.939357,1.5598 -1.251291,1.8238 -1.691001,1.43115 -2.090846,1.73357 -3.00568,2.27333 -0.550013,0.32452 -1.282476,0.63394 -1.627696,0.68761 -0.34522,0.0537 -0.771673,0.17945 -0.947673,0.27952 -0.752467,0.42782 -4.011094,0.3037 -5.024282,-0.19137 -2.059565,-1.00638 -3.724053,-4.05519 -3.93571,-7.208971 C 42.257964,95.163594 41.933088,93.76 41.585241,93.76 41.201057,93.76 39.04,95.942645 39.04,96.330667 39.04,96.5008 38.855789,96.64 38.630643,96.64 c -0.225146,0 -0.621146,0.298103 -0.88,0.662451 -0.258854,0.364348 -1.479623,1.696348 -2.71282,2.959999 -3.911049,4.00764 -6.335788,6.92131 -6.375374,7.66094 -0.05243,0.97955 -0.832211,2.79661 -1.200157,2.79661 -0.165035,0 -0.218448,0.13206 -0.118696,0.29346 0.526477,0.85186 -6.847981,1.95384 -7.455045,1.11403 -0.114703,-0.15868 -0.60332,-0.49196 -1.085816,-0.74061 -0.87003,-0.44837 -3.103811,-3.3645 -3.233312,-4.22098 -0.03708,-0.24525 -0.156779,-0.5899 -0.265996,-0.7659 -0.337293,-0.54354 -0.996075,-3.14105 -1.09564,-4.32 -0.05202,-0.616 -0.154275,-1.62192 -0.227229,-2.235383 -0.07295,-0.61346 3.02e-4,-1.54946 0.162791,-2.08 0.16249,-0.530539 0.347866,-1.252617 0.411948,-1.604617 0.06408,-0.352 0.980783,-3.232 2.037112,-6.4 2.015271,-6.043924 2.86038,-8.639831 3.073232,-9.44 0.07023,-0.264 0.436688,-1.416 0.814359,-2.56 0.377671,-1.144 0.738104,-2.322655 0.800964,-2.619233 0.06286,-0.296578 0.254158,-0.800578 0.425107,-1.12 0.17095,-0.319422 0.313238,-0.652767 0.316198,-0.740767 0.01579,-0.469459 0.497984,-2.123854 0.699513,-2.4 0.128444,-0.176 0.491542,-1.110263 0.806883,-2.07614 0.315342,-0.965877 0.837858,-2.189877 1.161146,-2.72 0.323288,-0.530123 0.588335,-1.21586 0.588993,-1.52386 6.58e-4,-0.308 0.122082,-0.56 0.269831,-0.56 0.14775,0 0.417154,-0.324 0.598678,-0.72 0.181523,-0.396 1.209368,-1.904397 2.284099,-3.351994 3.64572,-4.910561 4.197646,-6.570271 3.322163,-9.990148 -0.460952,-1.800604 -0.676409,-4.376593 -0.804442,-9.617858 -0.108511,-4.442114 1.344068,-9.288117 3.396739,-11.331986 1.227713,-1.22245 4.165725,-3.293249 5.913182,-4.16779 1.717929,-0.859762 3.957651,-1.03306 4.716222,-0.364915 0.496727,0.437515 0.339518,2.436325 -0.285087,3.624691 -0.300643,0.572 -0.468,1.04 -0.371903,1.04 0.0961,0 -0.105168,0.548628 -0.447255,1.219174 -0.342087,0.670546 -0.708466,1.858546 -0.814175,2.64 -0.105709,0.781454 -0.336008,2.068826 -0.511775,2.860826 -0.523387,2.358364 -0.553429,5.772269 -0.07181,8.16 0.248503,1.232 0.560536,2.351659 0.693407,2.488132 0.132871,0.136473 0.734725,0.316431 1.337452,0.399908 0.602727,0.08348 1.671868,0.232411 2.375868,0.330966 2.086609,0.29211 3.101705,0.416908 4.96,0.609792 0.968,0.100474 2.84,0.342778 4.16,0.538452 5.244561,0.777443 15.671464,0.984587 17.28,0.34329 1.85152,-0.73817 2.094287,-1.130127 1.360528,-2.196624 C 73.648055,45.071386 72.831588,43.708413 72.751224,43.36 72.710629,43.184 72.61051,42.752 72.528738,42.4 72.446967,42.048 72.176731,41.175107 71.928214,40.460239 71.471092,39.145306 71.20001,36.365743 71.243553,33.44 71.34592,26.561703 71.49822,23.037974 71.734547,22.08 c 0.779098,-3.158144 0.879829,-3.35755 1.93537,-3.831259 1.614135,-0.724396 4.049737,-0.635696 6.330083,0.230529 0.264,0.100285 0.574189,0.164078 0.689308,0.141763 0.11512,-0.02231 0.384752,0.170824 0.599183,0.429198 0.21443,0.258373 0.57061,0.469769 0.791509,0.469769 0.220899,0 0.579744,0.214608 0.797433,0.476907 0.229035,0.27597 0.68373,0.40613 1.079182,0.308925 C 84.332477,20.213442 85.432,20.080169 86.4,20.00967 c 0.968,-0.0705 1.859732,-0.137516 1.981626,-0.148925 0.121895,-0.01141 0.146268,-0.344745 0.05416,-0.740745 -0.68918,-2.963087 -0.401734,-3.223514 2.924211,-2.649354 1.153809,0.199183 2.424326,0.795338 3.590229,1.684615 1.103296,0.841526 1.159744,0.851345 1.498133,0.260614 1.345471,-2.348813 4.098368,-4.433082 6.843938,-5.181675 l 1.37229,-0.374164 1.34771,1.809839 c 0.74123,0.995411 1.58303,2.071161 1.87065,2.390554 0.4868,0.54057 2.83705,5.855327 2.83705,6.415583 0,0.250424 2.60248,4.382109 3.21584,5.105439 0.17654,0.208202 0.76836,1.098549 1.31515,1.978549 0.54679,0.88 1.23781,1.96 1.53559,2.4 0.78605,1.161451 2.18772,4.22192 2.43029,5.306415 0.3736,1.670318 -0.10584,8.344986 -0.73599,10.246122 -0.28141,0.849024 -1.81472,3.473542 -2.31789,3.967463 -0.0896,0.088 -0.80571,1.096 -1.59125,2.24 -1.66661,2.427107 -1.76582,2.530938 -3.16919,3.316752 -0.71074,0.397979 -2.12256,0.679799 -4.23853,0.846076 -3.31198,0.26026 -4.61442,0.760449 -4.71201,1.809604 -0.0301,0.323162 -0.0721,4.703677 -0.0935,9.734477 -0.0213,5.0308 -0.15898,9.9268 -0.30586,10.88 -0.14689,0.9532 -0.33626,2.381091 -0.42084,3.173091 -0.16882,1.580948 -0.39019,2.773123 -0.83186,4.48 -0.1594,0.616 -0.35929,1.517235 -0.44421,2.002745 -0.0849,0.485509 -0.22732,1.133509 -0.31645,1.44 -0.422865,1.45419 -0.48812,3.107638 -0.177017,4.485341 0.187777,0.831553 0.397327,1.943914 0.465667,2.471914 0.0683,0.528 0.26808,1.54016 0.44385,2.24924 0.31907,1.28714 0.28945,2.44376 -0.0858,3.35076 -0.10923,0.264 -0.24487,0.80236 -0.30144,1.19635 -0.106,0.73834 -0.84326,1.68692 -2.179052,2.80365 -1.151715,0.96284 -4.112233,0.87124 -6.238346,-0.19302 -1.506647,-0.75417 -1.680985,-0.77829 -2.256491,-0.31215 -0.420577,0.34065 -0.593256,0.81781 -0.530234,1.46517 0.310172,3.18604 0.10883,4.42132 -1.083192,6.64565 -0.686264,1.28058 -1.23594,1.84173 -2.337285,2.38608 -1.226724,0.60631 -4.823152,1.23043 -5.168497,0.89693 z m 2.86767,-4.35541 c 0.88063,-0.30699 1.583488,-1.29466 1.404227,-1.97325 -0.03487,-0.132 0.06298,-0.24 0.217445,-0.24 0.154465,0 0.215937,-0.468 0.136606,-1.04 -0.07933,-0.572 -0.160291,-1.85556 -0.17991,-2.85236 -0.02996,-1.52205 0.10736,-1.99988 0.857249,-2.98303 0.491105,-0.64387 1.129684,-1.25781 1.419064,-1.3643 0.28938,-0.1065 0.598146,-0.28854 0.686146,-0.40455 0.312897,-0.41249 2.09597,-0.85363 3.115027,-0.77068 0.569264,0.0463 1.467896,0.39249 1.996959,0.76921 0.529063,0.37673 1.457122,0.76532 2.062354,0.86353 1.061028,0.17219 1.112796,0.13262 1.446147,-1.10535 0.190149,-0.70617 0.276491,-1.47935 0.191871,-1.7182 -0.08462,-0.23885 -0.237674,-0.86627 -0.340119,-1.39427 -0.102445,-0.528 -0.282145,-1.392 -0.399333,-1.92 -0.494952,-2.230048 -0.207035,-8.137012 0.533006,-10.935273 1.366132,-5.165644 1.723815,-9.272831 1.688159,-19.384727 -0.02097,-5.9464 0.08271,-9.52 0.276181,-9.52 0.170361,0 0.284618,-0.108 0.253904,-0.24 -0.09553,-0.410575 0.822396,-2.127079 1.516484,-2.835793 0.93022,-0.94981 2.39174,-1.361342 6.06892,-1.708872 3.63027,-0.343097 3.2069,-0.03213 6.42374,-4.718182 1.97085,-2.870971 2.39357,-4.14023 1.96019,-5.885594 -0.20404,-0.821723 -0.15632,-1.458976 0.16772,-2.24 0.24909,-0.600357 0.41717,-1.523559 0.3735,-2.051559 -0.0856,-1.035445 -2.46483,-5.598559 -4.00436,-7.68 -2.1148,-2.859205 -5.27071,-8.214193 -5.04366,-8.558147 0.24459,-0.370526 -2.85048,-5.966302 -3.31322,-5.990169 -0.12459,-0.0064 -0.77606,0.528316 -1.44772,1.188316 -1.19789,1.177104 -1.546993,1.751888 -2.332278,3.84 -0.237837,0.632421 -0.62672,1.055676 -0.992295,1.08 -0.330647,0.022 -1.309177,0.058 -2.17451,0.08 -0.865334,0.022 -1.660131,0.126798 -1.766218,0.232884 -0.106086,0.106086 -1.378086,0.13736 -2.826666,0.0695 C 89.985202,24.034518 87.504,24.145394 85.92,24.34877 82.520921,24.785193 81.807586,24.782758 81.658073,24.334218 81.596799,24.150398 81.415762,24 81.255767,24 81.095773,24 80.592235,23.676 80.136795,23.28 79.681355,22.884 79.21226,22.547563 79.094361,22.532363 78.976463,22.517162 78.664,22.421189 78.4,22.31909 c -1.711161,-0.661775 -2.129037,-0.570765 -2.469262,0.537788 -0.18284,0.595747 -0.379962,2.716664 -0.438049,4.713149 -0.311888,10.719775 -0.01625,12.453594 2.883322,16.909973 0.973384,1.496 1.750191,2.792 1.726237,2.88 -0.02395,0.088 -0.114741,0.592 -0.20175,1.12 -0.224305,1.361159 -0.563816,2.103359 -0.874362,1.911432 -0.146741,-0.09069 -0.415273,0.09014 -0.596738,0.401838 -0.181465,0.311701 -0.334315,0.446985 -0.339667,0.300631 C 78.084379,50.947546 77.576,51.139291 76.96,51.52 c -0.616,0.380709 -1.12,0.605134 -1.12,0.498722 0,-0.106412 -0.328847,0.02199 -0.730771,0.285344 -0.401925,0.263351 -1.085925,0.54397 -1.52,0.623598 -0.434076,0.07963 -0.861229,0.168674 -0.949229,0.197882 -0.296825,0.09852 -9.740812,0.004 -12,-0.120104 -1.232,-0.06768 -3.536,-0.289658 -5.12,-0.493297 -1.584,-0.203639 -3.456,-0.426181 -4.16,-0.494537 -0.704,-0.06836 -1.28,-0.142726 -1.28,-0.165264 0,-0.02254 -0.831812,-0.100394 -1.848471,-0.173011 -1.016659,-0.07262 -1.976094,-0.210908 -2.132078,-0.307312 -0.155984,-0.0964 -1.196172,-0.249478 -2.311529,-0.340166 C 40.856059,50.79347 39.53296,50.416801 39.846341,49.90974 39.935807,49.764981 39.717624,48.907301 39.361491,48.003783 38.372025,45.493487 38.042464,43.63197 38.029488,40.48 c -0.01276,-3.099862 0.433897,-6.20815 1.307493,-9.098806 0.182641,-0.604343 0.272471,-1.158409 0.199623,-1.231257 -0.07285,-0.07285 -0.650834,0.277614 -1.284413,0.778806 -1.192261,0.943136 -2.542293,3.37057 -2.927777,5.26431 -0.304796,1.497349 -0.367967,8.296423 -0.07874,8.475173 0.129244,0.07988 0.186679,0.396092 0.127632,0.702699 -0.05905,0.306607 0.08988,1.691685 0.330941,3.077951 0.241065,1.386266 0.361729,2.644377 0.268142,2.795804 -0.09359,0.151426 -0.03605,0.27532 0.127859,0.27532 0.663613,0 0.05009,3.649285 -0.963938,5.733609 -0.563621,1.158515 -1.141401,2.250391 -1.283954,2.426391 -0.142554,0.176 -0.693243,0.824 -1.223754,1.44 -0.530512,0.616 -1.27549,1.66 -1.655508,2.32 -0.380018,0.66 -0.790955,1.2 -0.913194,1.2 -0.122238,0 -0.401192,0.432 -0.619897,0.96 -0.218705,0.528 -0.532673,0.96 -0.697708,0.96 -0.165035,0 -0.211066,0.144 -0.102292,0.32 0.108774,0.176 0.06927,0.32 -0.08778,0.32 -0.157054,0 -0.297543,0.18 -0.312198,0.4 -0.01466,0.22 -0.485092,1.624 -1.045415,3.12 -0.560323,1.496 -1.163303,3.224 -1.339957,3.84 -0.176654,0.616 -0.486217,1.322132 -0.687919,1.569182 -0.201701,0.247051 -0.315486,0.463051 -0.252854,0.48 0.06263,0.01695 -0.07135,0.678818 -0.297745,1.470818 -0.226391,0.792 -0.427544,1.512 -0.447007,1.6 -0.01946,0.088 -0.305007,0.952 -0.634544,1.92 -0.329537,0.968 -0.581309,1.793996 -0.559493,1.835546 0.02182,0.04155 -0.18159,0.689551 -0.452015,1.44 -0.270425,0.75045 -0.546768,1.580454 -0.614096,1.844454 -0.390077,1.529538 -1.137427,3.894388 -1.687933,5.341147 -0.347645,0.913631 -0.551598,1.741631 -0.453229,1.84 0.09837,0.09837 0.01085,0.178853 -0.194481,0.178853 -0.205333,0 -0.347894,0.108 -0.316803,0.24 0.03109,0.132 -0.137164,0.888 -0.373902,1.68 -0.580699,1.942711 -0.643081,2.246385 -0.690227,3.36 -0.129192,3.05166 1.351666,7.36844 2.897451,8.44623 0.497377,0.34679 1.259356,0.54277 1.900874,0.4889 1.27307,-0.10691 1.31453,-0.1401 1.508088,-1.20751 0.279765,-1.54281 0.733962,-2.37307 2.120159,-3.87558 0.759565,-0.8233 1.931556,-2.09882 2.604425,-2.83448 0.672869,-0.735657 3.247476,-3.38956 5.721349,-5.89756 2.473873,-2.508 4.397058,-4.56 4.273745,-4.56 -0.123313,0 -0.0082,-0.216 0.255794,-0.48 0.264,-0.264 0.677485,-0.48 0.918857,-0.48 0.241371,0 0.592707,-0.15385 0.780746,-0.341889 0.544286,-0.544286 2.392536,0.402804 3.423274,1.754171 1.194633,1.566244 1.51776,2.755955 1.960293,7.217524 0.220231,2.220352 1.014777,3.042294 2.985332,3.088274 1.262382,0.0295 1.906674,-0.1472 2.84462,-0.779941 1.791988,-1.208885 1.948467,-1.538884 1.772021,-3.737023 -0.117451,-1.463193 -0.01883,-2.230075 0.387923,-3.016658 l 0.54541,-1.054706 2.354537,0.220638 c 2.58043,0.241806 2.760762,0.270134 4.131373,0.648984 2.249166,0.621692 3.665664,1.780119 4.941956,4.041585 0.549655,0.973934 0.999372,1.982763 0.999372,2.241842 0,0.590676 2.357596,5.494149 3.232035,6.722189 0.35835,0.50325 0.53374,0.91722 0.389755,0.91991 -0.143984,0.003 -0.100931,0.1107 0.09567,0.24 0.196605,0.12931 0.870449,1.0271 1.497429,1.9951 3.324139,5.13216 7.376378,7.54034 10.724279,6.37325 z"
       id="path1" />
  </g>
</svg>
